<svg width="15" height="21" viewBox="0 0 15 21" fill="none" xmlns="http://www.w3.org/2000/svg">
<path d="M7.56847 4.60214C6.08849 4.60214 4.88388 5.80676 4.88388 7.28673C4.88388 8.76671 6.08849 9.97132 7.56847 9.97132C9.04844 9.97132 10.2531 8.76671 10.2531 7.28673C10.2531 5.80676 9.04844 4.60214 7.56847 4.60214ZM7.56847 9.20429C6.51112 9.20429 5.65091 8.34407 5.65091 7.28673C5.65091 6.22939 6.51112 5.36917 7.56847 5.36917C8.62581 5.36917 9.48603 6.22939 9.48603 7.28673C9.48603 8.34407 8.62581 9.20429 7.56847 9.20429Z" fill="white"/>
<path d="M12.7013 2.15419C11.3122 0.765108 9.4652 0 7.50085 0C5.53611 0 3.6895 0.765108 2.30042 2.15419C-0.270266 4.72449 -0.589732 9.56059 1.60856 12.4906L7.50085 21L13.3843 12.5025C15.5914 9.56059 15.272 4.72449 12.7013 2.15419ZM12.7623 12.0542L7.50085 19.6523L2.231 12.0423C0.237121 9.38379 0.522838 5.01635 2.84309 2.69648C4.0872 1.45236 5.74129 0.767025 7.50085 0.767025C9.2604 0.767025 10.9145 1.45236 12.159 2.69648C14.4792 5.01635 14.765 9.38379 12.7623 12.0542Z" fill="white"/>
</svg>
