<svg width="40" height="40" viewBox="0 0 40 40" fill="none" xmlns="http://www.w3.org/2000/svg">
<g clip-path="url(#clip0)">
<path d="M19.969 0C13.4813 0 8.20325 5.27802 8.20325 11.7657V28.2343C8.20325 34.722 13.4813 40 19.969 40C26.4567 40 31.7347 34.722 31.7347 28.2343V11.7657C31.7347 5.27802 26.4567 0 19.969 0ZM29.3348 28.2343C29.3348 33.3984 25.1332 37.6001 19.969 37.6001C14.8048 37.6001 10.6032 33.3984 10.6032 28.2343V11.7657C10.6032 6.60156 14.8048 2.3999 19.969 2.3999C25.1332 2.3999 29.3348 6.60156 29.3348 11.7657V28.2343Z" fill="#D4C17F"/>
<path d="M19.9693 7.95715C19.3065 7.95715 18.7693 8.49426 18.7693 9.1571V14.6802C18.7693 15.3427 19.3065 15.8801 19.9693 15.8801C20.6318 15.8801 21.1693 15.3427 21.1693 14.6802V9.1571C21.1693 8.49426 20.6321 7.95715 19.9693 7.95715Z" fill="#D4C17F"/>
</g>
<defs>
<clipPath id="clip0">
<rect width="40" height="40" fill="white" transform="translate(0.00012207)"/>
</clipPath>
</defs>
</svg>
