<svg width="21" height="21" viewBox="0 0 21 21" fill="none" xmlns="http://www.w3.org/2000/svg">
<path d="M20.9865 17.2839C20.9197 16.7792 20.6284 16.3441 20.1873 16.0902L15.0066 13.1073C14.372 12.742 13.5671 12.8483 13.0491 13.3662L12.0287 14.3866C11.7571 14.6582 11.3275 14.6823 11.0296 14.4425C10.2251 13.7952 9.43304 13.0828 8.67537 12.3251C7.91771 11.5674 7.20531 10.7753 6.55795 9.97083C6.31816 9.67285 6.34215 9.24328 6.61379 8.97169L7.63419 7.95124C8.15206 7.43342 8.25856 6.62854 7.89313 5.99388L4.91023 0.813105C4.65624 0.371977 4.22119 0.080704 3.71657 0.0139407C3.2119 -0.0529586 2.71602 0.115356 2.35608 0.475297L0.818485 2.01294C-0.254672 3.08614 -0.271907 5.04922 0.769955 7.54064C1.77177 9.93623 3.64132 12.5734 6.03414 14.9663C8.42705 17.3591 11.0642 19.2287 13.4598 20.2305C14.6862 20.7434 15.7844 20.9996 16.7117 20.9996C17.6681 20.9996 18.4426 20.7268 18.9875 20.1819L20.5251 18.6443C20.885 18.2844 21.0532 17.7885 20.9865 17.2839ZM14.6671 13.6969L19.8479 16.6798C20.1041 16.8273 20.2733 17.08 20.312 17.3731C20.3446 17.619 20.2807 17.8612 20.1358 18.0564L13.2506 14.1269L13.5302 13.8473C13.831 13.5465 14.2986 13.4847 14.6671 13.6969ZM3.62731 0.688422C3.92044 0.727201 4.17312 0.896377 4.32061 1.15259L7.30351 6.33337C7.51577 6.70197 7.45391 7.1695 7.15315 7.4702L6.89631 7.72705L2.94521 0.864628C3.10672 0.745026 3.29989 0.680077 3.50126 0.680077C3.54304 0.680077 3.58517 0.682844 3.62731 0.688422ZM18.5064 19.7009C17.6538 20.5534 15.9101 20.5177 13.7223 19.6028C11.4065 18.6344 8.847 16.8169 6.51527 14.4852C4.18355 12.1535 2.36606 9.59397 1.39763 7.27817C0.482673 5.09035 0.446978 3.34662 1.29957 2.49398L2.44103 1.35247L6.39808 8.22528L6.1327 8.49066C5.61497 9.00843 5.56988 9.8281 6.02788 10.3974C6.69048 11.2209 7.41939 12.0313 8.19424 12.8061C8.96919 13.581 9.7796 14.3099 10.603 14.9725C11.1722 15.4305 11.9919 15.3855 12.5098 14.8677L12.7519 14.6256L19.6466 18.5606L18.5064 19.7009Z" fill="white"/>
</svg>
